<svg id="Capa_1" enable-background="new 0 0 512 512" height="512" viewBox="0 0 512 512" width="512" xmlns="http://www.w3.org/2000/svg"><g><g><path d="m331.497 161.122h-150.994c-24.163 17.298-37.407 37.473-38.237 58.169h3.439v15h-3.482v38.01h3.482v15h-3.482v38.01h3.482v15h-3.482v38.011h3.482v15h-3.482v38.01h3.482v12.927c0 .691-.015 1.382-.043 2.073h-3.439v30.094c0 15.506 12.378 28.075 27.647 28.075h172.26c15.269 0 27.647-12.569 27.647-28.075v-255.062c0-21.42-13.311-42.366-38.28-60.242z" fill="#82aee3"/><path d="m369.777 476.425v-255.061c0-21.419-13.311-42.366-38.28-60.242h-31.444c24.969 17.875 38.28 38.822 38.28 60.242v255.061c0 15.506-12.378 28.075-27.647 28.075h31.444c15.269 0 27.647-12.569 27.647-28.075z" fill="#528fd8"/><path d="m325.77 186.096.005-.007c-2.092-2.779-5.254-6.793-5.254-6.793-6.059 0-120.255 0-127.536 0-12.586 11.359-19.425 23.337-19.425 34.256v262.84c0 .767.445 1.108.615 1.108h163.651c.115 0 .35-.172.494-.514.004-.188.014-.373.014-.562v-255.06c-.001-14.629-7.119-29.14-12.564-35.268z" fill="#d3e1f5"/><path d="m278.008 76.897h-44.015v-47.39c-.001-12.154 9.853-22.007 22.007-22.007s22.007 9.853 22.007 22.007v47.39z" fill="#fff0ad"/><path d="m342.202 143.845h-172.332v-9.807c0-39.609 32.109-71.718 71.718-71.718h28.896c39.609 0 71.718 32.109 71.718 71.718z" fill="#fff0ad"/><path d="m334.319 179.296h-173.645c-10.482 0-18.98-8.498-18.98-18.98v-1.116c0-15.141 12.274-27.415 27.415-27.415h156.774c15.141 0 27.415 12.274 27.415 27.415v1.116c0 10.482-8.497 18.98-18.979 18.98z" fill="#ffe177"/><path d="m278.008 62.714v-33.207c0-12.154-9.854-22.007-22.008-22.007-6.092 0-11.606 2.476-15.591 6.476 3.965 3.98 6.417 9.469 6.417 15.531v33.207c36.072 3.761 64.195 34.256 64.195 71.324v9.807h31.181v-9.807c0-37.067-28.122-67.562-64.194-71.324z" fill="#ffe177"/><path d="m351.326 179.296c10.482 0 18.98-8.498 18.98-18.979v-1.117c0-15.141-12.274-27.415-27.415-27.415h-31.181c15.141 0 27.415 12.274 27.415 27.415v1.117c0 10.482-8.497 18.979-18.98 18.979z" fill="#ffd15b"/><path d="m325.77 186.096.005-.007c-2.092-2.779-5.254-6.793-5.254-6.793-1.798 0-13.121 0-28.346 0 0 0 3.162 4.014 5.254 6.793l-.005.007c5.445 6.128 12.563 20.639 12.563 35.268v255.061c0 .188-.01.374-.014.562-.144.341-.379.514-.494.514h28.346c.115 0 .35-.172.494-.514.004-.188.014-.373.014-.562v-255.061c0-14.629-7.118-29.14-12.563-35.268z" fill="#c0d6f2"/></g><path d="m377.806 160.316v-1.117c0-17.124-12.394-31.396-28.681-34.346-1.26-10.8-4.731-21.29-10.199-30.671-2.086-3.578-6.678-4.788-10.256-2.702s-4.789 6.678-2.703 10.257c4.04 6.93 6.738 14.608 7.956 22.548h-155.773c4.369-28.412 27.557-51.07 56.693-54.109 3.82-.398 6.722-3.619 6.722-7.46v-33.208c0-8 6.508-14.508 14.508-14.508s14.507 6.508 14.507 14.508v33.217c0 3.838 2.897 7.057 6.714 7.459 9.682 1.02 18.782 4.146 27.047 9.29 3.519 2.188 8.143 1.112 10.331-2.404 2.189-3.517 1.113-8.142-2.404-10.33-8.274-5.15-17.226-8.662-26.688-10.479v-26.753c0-16.271-13.237-29.508-29.508-29.508s-29.508 13.237-29.508 29.508v26.744c-33.692 6.495-59.633 34.459-63.62 68.589-16.321 2.921-28.75 17.21-28.75 34.358v1.117c0 9.785 5.339 18.341 13.254 22.925-8.444 12.2-12.725 24.982-12.725 38.122v255.062c0 19.616 15.767 35.575 35.147 35.575h14.145c4.142 0 7.5-3.357 7.5-7.5s-3.358-7.5-7.5-7.5h-14.145c-11.109 0-20.147-9.23-20.147-20.575v-30.094h29.392c4.142 0 7.5-3.357 7.5-7.5s-3.358-7.5-7.5-7.5h-29.392v-38.01h48.01c4.142 0 7.5-3.357 7.5-7.5s-3.358-7.5-7.5-7.5h-48.01v-38.01h29.392c4.142 0 7.5-3.357 7.5-7.5s-3.358-7.5-7.5-7.5h-29.392v-38.011h48.01c4.142 0 7.5-3.357 7.5-7.5s-3.358-7.5-7.5-7.5h-48.01v-38.01h29.392c4.142 0 7.5-3.357 7.5-7.5s-3.358-7.5-7.5-7.5h-29.34c.514-11.024 5.13-21.932 13.754-32.495h184.943c9.164 11.225 13.806 22.839 13.806 34.567v255.062c0 11.345-9.038 20.575-20.147 20.575h-123.116c-4.142 0-7.5 3.357-7.5 7.5s3.358 7.5 7.5 7.5h123.115c19.38 0 35.147-15.959 35.147-35.575v-255.061c0-13.14-4.281-25.922-12.725-38.122 7.915-4.583 13.254-13.139 13.254-22.925zm-15 0c0 5.417-3.716 10.924-11.626 11.479h-190.359c-.157-.011-.315-.021-.474-.025-.04-.001-.079.003-.119.003-6.122-.237-11.034-5.277-11.034-11.457v-1.117c0-10.98 8.934-19.914 19.915-19.914h.833 172.188.761c10.981 0 19.915 8.934 19.915 19.914z"/></g></svg>