<?xml version="1.0" encoding="UTF-8"?>
<svg xmlns="http://www.w3.org/2000/svg" viewBox="0 0 512 512" width="512" height="512"><g id="Fill_out_line" data-name="Fill out line"><path d="M135.99694,424.00139c-13.99309,13.99308-27.98564,36.14531-37.22115,52.185a23.98058,23.98058,0,0,1-31.50732,9.44735l-.00515-.00257a91.4533,91.4533,0,0,1-40.89827-40.9l0-.00005a23.98057,23.98057,0,0,1,9.4478-31.50644c16.03972-9.23551,38.19246-23.2283,52.18578-37.22162,16.00166-111.99865,64.00715-208.00246,111.99848-272.00279L407.99973,312.00291C343.9994,359.99424,247.99559,407.99973,135.99694,424.00139Z" style="fill:#e7f2da"/><path d="M240.00293,376.09766a4.00052,4.00052,0,0,1-1.81738-7.56543A789.047,789.047,0,0,0,309.82031,327.124a4,4,0,1,1,4.35938,6.708,797.01328,797.01328,0,0,1-72.36524,41.8291A3.9838,3.9838,0,0,1,240.00293,376.09766Z" style="fill:#b1cdb4"/><path d="M168.00391,388.9873a4.00026,4.00026,0,0,1-2.041-7.44287c24.55762-14.53613,49.78125-30.95752,74.96973-48.8081a3.9999,3.9999,0,1,1,4.625,6.52734c-25.36524,17.97656-50.77442,34.51807-75.52051,49.16553A3.97828,3.97828,0,0,1,168.00391,388.9873Z" style="fill:#b1cdb4"/><path d="M151.99805,348.30908a4.00028,4.00028,0,0,1-3.041-6.59668C164.126,323.93945,180.2959,305.44092,197.01758,286.73a4,4,0,0,1,5.96484,5.33106c-16.68164,18.66552-32.81054,37.11816-47.93945,54.84472A3.99455,3.99455,0,0,1,151.99805,348.30908Z" style="fill:#b1cdb4"/><path d="M119.99609,360.05029a4.00033,4.00033,0,0,1-3.46777-5.98681A1099.62623,1099.62623,0,0,1,181.92871,253.646a3.99952,3.99952,0,1,1,6.4668,4.708,1091.90391,1091.90391,0,0,0-64.92383,99.68213A3.99818,3.99818,0,0,1,119.99609,360.05029Z" style="fill:#b1cdb4"/><path d="M127.99707,300.47314a4.00206,4.00206,0,0,1-3.626-5.68408A782.01285,782.01285,0,0,1,172.61816,206.48a4.0003,4.0003,0,0,1,6.76368,4.27344,773.9823,773.9823,0,0,0-47.75293,87.40185A4.00144,4.00144,0,0,1,127.99707,300.47314Z" style="fill:#b1cdb4"/><path d="M38.48047,441.57666a4.00018,4.00018,0,0,1-2.13477-7.38525l8.85645-5.57618a3.99965,3.99965,0,1,1,4.26172,6.76954l-8.85645,5.57617A3.97546,3.97546,0,0,1,38.48047,441.57666Z" style="fill:#b1cdb4"/><path d="M47.33594,455.125a4,4,0,0,1-2.50782-7.11865l8.25-6.625a4.00005,4.00005,0,1,1,5.00977,6.2373l-8.25,6.625A3.98511,3.98511,0,0,1,47.33594,455.125Z" style="fill:#b1cdb4"/><path d="M59.25879,467.83154a3.99972,3.99972,0,0,1-2.99707-6.64648l7.02051-7.95654a3.99975,3.99975,0,1,1,5.998,5.293l-7.0205,7.95655A3.98877,3.98877,0,0,1,59.25879,467.83154Z" style="fill:#b1cdb4"/><path d="M73.5791,477.834a4.00042,4.00042,0,0,1-3.42285-6.063l5.417-9a3.99957,3.99957,0,1,1,6.85352,4.125l-5.417,9A3.99543,3.99543,0,0,1,73.5791,477.834Z" style="fill:#b1cdb4"/><path d="M357.99325,124.64665a19.96984,19.96984,0,0,1-25.22,29.08,23.941,23.941,0,0,1-19.43994,9.94,23.662,23.662,0,0,1-7.97-1.37,23.98177,23.98177,0,0,1-16.03-22.63,23.64771,23.64771,0,0,1,.3-3.79,18.87132,18.87132,0,0,1-2.07007-1.72,19.97715,19.97715,0,0,1,10.12012-34.14,19.97559,19.97559,0,0,1,36.54-7.03,19.97,19.97,0,0,1,23.07983,30.68C357.54329,123.98667,357.77327,124.31663,357.99325,124.64665Z" style="fill:#b34250"/><path d="M472,264s8,16,0,24a49.42944,49.42944,0,0,1-11.79-.95A25.10353,25.10353,0,0,1,448,280l-16-32,14.12012-4.71L456,240s12.32007-4.11,22.24,2.39c3.92993,2.57,7.49,6.8,9.76,13.61C480,264,472,264,472,264Z" style="fill:#03999c"/><path d="M216,176c-9.87988,3.29-19.76,2.52-27.97.47A70.66178,70.66178,0,0,1,168,168s16-24,24-24c-8,0-24-16-24-16a70.97171,70.97171,0,0,1,18.1001-12.58A33.94225,33.94225,0,0,1,200,112l24,8S240,168,216,176Z" style="fill:#03999c"/><path d="M251.65991,278.84A44.77229,44.77229,0,0,1,240,288s-8-16-8-24c-8,8-24,8-24,8-3.8999-7.79-4-17.48-1.22-25.37C209.68994,238.31,215.79,232,224,232c0,0,24,0,32,8C265.01,258.02,258.80005,270.97,251.65991,278.84Z" style="fill:#03999c"/><path d="M320,280c-2.59009,12.98-7.72,20.07007-13.46,23.71C294.6001,311.30005,280,304,280,304c4.67993-2.34009,6.62012-5.37,7.41992-8.88,1.96-8.49-2.74-19.79993,8.58008-31.12Z" style="fill:#03999c"/><path d="M390.09009,324.31006A75.70491,75.70491,0,0,1,384,336a57.2438,57.2438,0,0,1-18.16992-11.16A48.77562,48.77562,0,0,1,352,304l40-8C396.39014,304.79,393.55005,315.99,390.09009,324.31006Z" style="fill:#03999c"/><path d="M393.95,48.07c-.32983,7.61-2.62988,16.61-9.95,23.93l-48,8c-12.24-16.32-9.90991-30.56-4.7-40.6A49.9673,49.9673,0,0,1,344,24s16,8,16,16c8-8,32-8,32-8A49.29966,49.29966,0,0,1,393.95,48.07Z" style="fill:#03999c"/><path d="M480,104c0,6.56-4.03,11.77-8.79,15.64A54.93258,54.93258,0,0,1,456,128l-32,8-16-24,24-24a39.47913,39.47913,0,0,1,15.99-8.76A40.10133,40.10133,0,0,1,472,80c0,8-8,16-8,16S472,96,480,104Z" style="fill:#03999c"/><path d="M436.78,92A23.99222,23.99222,0,0,1,417.96,127.91,24.00459,24.00459,0,0,1,377.03,118.97a23.99636,23.99636,0,0,1-8.93994-40.93A23.985,23.985,0,0,1,404,59.22,23.99375,23.99375,0,0,1,436.78,92Z" style="fill:#fd7584"/><path d="M396.65991,96.98a19.96984,19.96984,0,0,1-25.22,29.08A23.941,23.941,0,0,1,352,136a23.662,23.662,0,0,1-7.97-1.37A23.98176,23.98176,0,0,1,328,112a23.64771,23.64771,0,0,1,.3-3.79,18.86925,18.86925,0,0,1-2.07007-1.72A19.97714,19.97714,0,0,1,336.3501,72.35a19.97559,19.97559,0,0,1,36.54-7.03A19.97,19.97,0,0,1,395.97,96C396.21,96.32,396.43994,96.65,396.65991,96.98Z" style="fill:#fd7584"/><path d="M478.67993,172.89a19.88972,19.88972,0,0,1-.73,15.92v.01a19.98319,19.98319,0,0,1-34.84009,1.86,20.466,20.466,0,0,1-3.12988.91A19.25589,19.25589,0,0,1,436,192a19.96988,19.96988,0,0,1-18.67993-27.11c-.37012-.23-.73-.48-1.08008-.73a19.9818,19.9818,0,0,1,18.86987-34.84,19.97559,19.97559,0,0,1,36.54,7.03,19.97554,19.97554,0,0,1,7.03,36.54Z" style="fill:#fd7584"/><path d="M272.71,105.21c-.43994.43005-.8999.85-1.36987,1.24005A23.108,23.108,0,0,1,272,112a23.65792,23.65792,0,0,1-1.37012,7.97A23.9789,23.9789,0,0,1,227.78,124.9,23.99055,23.99055,0,0,1,198.12012,88,23.993,23.993,0,0,1,216,48a23.10654,23.10654,0,0,1,5.55.66A23.93615,23.93615,0,0,1,240,40a23.07572,23.07572,0,0,1,4.1001.36A23.99794,23.99794,0,0,1,264,64c0,.46-.01.91-.04,1.36a23.9834,23.9834,0,0,1,8.75,39.85Z" style="fill:#fd7584"/><path d="M336,72a23.93615,23.93615,0,0,0-8.08618-17.95868A23.99138,23.99138,0,0,0,288,38.116,23.99633,23.99633,0,0,0,254.116,72a23.99508,23.99508,0,0,0,23.43481,39.3476A23.99857,23.99857,0,0,0,320,96c0-.45575-.01538-.90778-.04053-1.3573A24.00567,24.00567,0,0,0,336,72Z" style="fill:#fd7584"/><path d="M448,148a19.93165,19.93165,0,0,0-24.54-19.46,19.99039,19.99039,0,0,0-37-14.15A24.00574,24.00574,0,1,0,372.25,159.71a20.09374,20.09374,0,0,0-1.48,2.16A19.98011,19.98011,0,0,0,404,183.96a19.97629,19.97629,0,0,0,34.67993-19.07,20.32079,20.32079,0,0,0,3.8-3.11A19.91986,19.91986,0,0,0,448,148Z" style="fill:#fd7584"/><path d="M386.16992,173.59A22.646,22.646,0,0,1,376,184c-16,8-40,8-40,8l-8-32a37.00126,37.00126,0,0,1,4.09009-15.31c3.28-6.38,9.21-13.12,19.90991-16.69,8,8,8,24,8,24s8-8,24-8C389.64014,149.64,391.31006,163.25,386.16992,173.59Z" style="fill:#03999c"/><path d="M320,120a28.72948,28.72948,0,0,1-2.83008,10.84C314.14014,137.58,309.07007,144,304,144l-24,16-16-32c0-8.13,4.12988-16.26,10.3-22.29C280.26,99.87,288.12988,96,296,96c8,8,4,19.83,4,19.83S312,112,320,120Z" style="fill:#03999c"/><path d="M465.87988,216A23.993,23.993,0,0,1,432,249.88,23.87237,23.87237,0,0,1,416,256a23.07572,23.07572,0,0,1-4.1001-.36,23.99754,23.99754,0,0,1-19.75-21.01q-.06006-.54006-.08984-1.08C392.02,233.04,392,232.52,392,232a23.902,23.902,0,0,1,3.09009-11.77,23.98611,23.98611,0,0,1,1.81982-41.5A23.69769,23.69769,0,0,1,408,176a24.15886,24.15886,0,0,1,5.55.65,23.99131,23.99131,0,0,1,36.40991-.56A23.98506,23.98506,0,0,1,465.87988,216Z" style="fill:#fd7584"/><path d="M406.67993,232.13A24.0264,24.0264,0,0,1,399.5,258.32007a23.95781,23.95781,0,0,1-32.23-1.14014A22.90259,22.90259,0,0,1,364,253.25,23.98535,23.98535,0,0,1,321.37988,248,23.597,23.597,0,0,1,320,240a23.81712,23.81712,0,0,1,3.1001-11.78,23.5089,23.5089,0,0,1-5.41016-4.73A23.986,23.986,0,0,1,336,184c.46,0,.90991.01,1.35986.04a23.99806,23.99806,0,0,1,45.28028,0c.45-.03.8999-.04,1.35986-.04a23.993,23.993,0,0,1,17.87988,40A23.90925,23.90925,0,0,1,406.67993,232.13Z" style="fill:#fd7584"/><path d="M440,264l-48-8a35.58754,35.58754,0,0,1,.87988-21.69c2.27-6.17,6.75-12.73,15.12012-18.31,8,0,16,16,16,16s8-8,16-8c3.87012,3.87,5.87012,11.49,5.99,19.23C446.12988,251.48,444.12988,259.87,440,264Z" style="fill:#03999c"/><path d="M446.08008,291.42993A20.00485,20.00485,0,0,1,416,316a20.00313,20.00313,0,0,1-32-16,19.25851,19.25851,0,0,1,.48-4.32007,19.99394,19.99394,0,0,1-.13989-39.34,19.99463,19.99463,0,0,1,37.2-5.94,23.9969,23.9969,0,0,1,24.54,41.03Z" style="fill:#fd7584"/><path d="M388.77,276A23.72626,23.72626,0,0,1,392,288a24.00655,24.00655,0,0,1-22.05,23.91992,23.99025,23.99025,0,0,1-40.59009-7.96c-.45.03-.8999.04-1.35986.04a23.99911,23.99911,0,0,1-7.96-46.64c-.03-.45008-.04-.9-.04-1.36a23.597,23.597,0,0,1,1.37988-8A23.98728,23.98728,0,0,1,362.45,240.66,23.10654,23.10654,0,0,1,368,240a24.00972,24.00972,0,0,1,23.96,22.64c.03.45.04.9.04,1.36A23.72626,23.72626,0,0,1,388.77,276Z" style="fill:#fd7584"/><path d="M344,172a18.65419,18.65419,0,0,1-.12988,2.25A19.93987,19.93987,0,0,1,335.7,188.22,23.52288,23.52288,0,0,1,336,192a23.98682,23.98682,0,0,1-22.64014,23.96c-.45.03-.8999.04-1.35986.04a23.72658,23.72658,0,0,1-12-3.23A23.72658,23.72658,0,0,1,288,216a24.00907,24.00907,0,0,1-22.87988-16.75,23.14069,23.14069,0,0,1-.96021-4.58c-.03979-.24-.05981-.48-.07983-.72A23.99321,23.99321,0,0,1,280,152c.46,0,.90991.01,1.35986.04A24.02443,24.02443,0,0,1,295.97,137.39,23.72964,23.72964,0,0,1,304,136a23.99828,23.99828,0,0,1,22.68994,16.18A19.99005,19.99005,0,0,1,344,172Z" style="fill:#fd7584"/><path d="M280,208a24.00619,24.00619,0,0,1-24,24c-.46,0-.90991-.01-1.35986-.04A23.98043,23.98043,0,0,1,233.02,247.98h-.01c-.34009.01-.66992.02-1.01.02a23.90627,23.90627,0,0,1-17.94995-8.08A24.00661,24.00661,0,0,1,192,216a23.7261,23.7261,0,0,1,3.23-12A23.9801,23.9801,0,0,1,228,171.23,23.72653,23.72653,0,0,1,240,168a24.0157,24.0157,0,0,1,22.97,17.03,23.73064,23.73064,0,0,1,7.77,4.05A23.85653,23.85653,0,0,1,280,208Z" style="fill:#fd7584"/><path d="M284.91138,147.77362A23.99646,23.99646,0,0,0,248,118.116a23.99522,23.99522,0,0,0-39.34766,23.43487,24.00049,24.00049,0,0,0,8.37891,41.41785,23.99846,23.99846,0,0,0,43.19507,5.94263,23.99692,23.99692,0,0,0,24.68506-41.13776Z" style="fill:#fd7584"/><path d="M329.87988,248A23.993,23.993,0,0,1,296,281.88,23.99309,23.99309,0,0,1,256,264c0-.46.01-.91.04-1.36A23.99911,23.99911,0,0,1,264,216a23.9992,23.9992,0,0,1,46.64014-7.96c.45-.03.8999-.04,1.35986-.04a23.993,23.993,0,0,1,17.87988,40Z" style="fill:#fd7584"/><path d="M80,400c-7.82007,0-12.90991.95-16.68994,2.5-3.97,1.62-6.52,3.91992-9.31006,6.5-5.46,5.05-15.75,15.09-20.5,6.76-4.75-8.34009,9.87988-17.86011,9.87988-17.86011s-13.0498.27-13.0498-8.06994c.01-4.74,5.72-8.55994,15.06006-9.50989C52.47,379.61,61.6499,380.55005,72,384Z" style="fill:#03999c"/><path d="M122.25,457.45c-1.31006,10.07007-5.64014,16.09009-10.59009,15.79-8.31982-.5-7.26977-13.52-7.26977-13.52S94.01,473.75,85.97,468.51c-8.03-5.25,2.62012-14.91,7.99-20.05,2.64014-2.54,5-4.86,6.84009-8.47,1.88989-3.72,3.22-8.82007,3.71-16.93994L120,432C122.64014,441.89,123.14014,450.61,122.25,457.45Z" style="fill:#03999c"/><path d="M107.2,377.21c-.99,8.65-12.61987,23.93994-22.51,28.64A12.80132,12.80132,0,0,1,79.27,407.27c-1.01-1.01-1.98-1.98-2.91992-2.92C71.99,399.98,68.26,396.2,64.97,392.62A102.35272,102.35272,0,0,1,47.27,367.27C39.27,351.27,32,328,48,320s48-16,56,16c1.91992,7.65991,3.27,19.45,3.54,29.3999A87.82816,87.82816,0,0,1,107.2,377.21Z" style="fill:#03999c"/><path d="M136,408l-32,24L89.29,417.29,79.27,407.27a21.60048,21.60048,0,1,1,31.87012-29.1001L120.35986,389.24Z" style="fill:#03999c"/><path d="M176,448c-8,16-24,16-40,8-15-7.5-22.96-15-37.08008-29.08008L96,424a12.80374,12.80374,0,0,1,1.41992-5.42c4.7002-9.89,19.99-21.5199,28.64014-22.50989C136.37012,394.8999,148.89014,397.22,160,400,192,408,184,432,176,448Z" style="fill:#03999c"/><path d="M479.929,234.131Q480,233.06839,480,232a31.927,31.927,0,0,0-4.28809-16A31.92663,31.92663,0,0,0,480,200q0-.21369-.00317-.42883A28.06617,28.06617,0,0,0,488,180a27.68167,27.68167,0,0,0-.30615-4.10675,27.98252,27.98252,0,0,0-9.59253-45.99872,27.83445,27.83445,0,0,0-1.91406-3.97272C485.74536,118.20984,488,110.01453,488,104a7.99911,7.99911,0,0,0-2.34326-5.6568,37.92251,37.92251,0,0,0-8.8103-6.62341A25.92247,25.92247,0,0,0,480,80a8,8,0,0,0-5.46851-7.58887,50.24365,50.24365,0,0,0-15.908-2.65356,46.99971,46.99971,0,0,0-11.83619,1.50384,31.99355,31.99355,0,0,0-42.791-20.92077q-1.0503-.42317-2.13013-.77173A57.7891,57.7891,0,0,0,399.592,29.478,7.99987,7.99987,0,0,0,392,24c-3.45776,0-17.65747.2865-28.614,4.7146-5.0044-6.0744-12.69507-10.31335-15.80835-11.86993a7.99973,7.99973,0,0,0-8.38062.7575A58.03214,58.03214,0,0,0,325.90625,32.7359,31.89865,31.89865,0,0,0,288,28.288a32.00408,32.00408,0,0,0-38.658,5.11091,31.96194,31.96194,0,0,0-30.63232,6.7149Q217.36646,40.00022,216,40a31.99877,31.99877,0,0,0-27.71191,48,32.0396,32.0396,0,0,0-4.09449,19.529A77.954,77.954,0,0,0,162.343,122.3432a8.0001,8.0001,0,0,0,.00024,11.31378c.11914.11927,1.95777,1.95246,4.69434,4.38886a625.53658,625.53658,0,0,0-73.60938,170.846,38.7877,38.7877,0,0,0-17.94507-4.04773c-13.60351,0-26.25512,5.5957-31.06323,8.00158-13.6333,6.81665-14.46728,20.79969-13.75073,28.52784.9956,10.7384,5.686,21.95532,9.44556,29.47424q.50684,1.01349,1.01977,1.998a32.75409,32.75409,0,0,0-9.11914,2.94287c-6.14575,3.14624-9.676,8.2594-9.6853,14.02832a14.30247,14.30247,0,0,0,5.86572,11.72827,18.93033,18.93033,0,0,0-3.6333,10.47827,31.98777,31.98777,0,0,0-5.34766,36.28455A99.99609,99.99609,0,0,0,63.68237,492.7854q.13551.06794.27344.13037a31.97858,31.97858,0,0,0,41.75366-12.72815q.08021-.13953.16065-.279a14.59786,14.59786,0,0,0,5.30566,1.31677c.28418.017.55884.02515.834.02515A14.79166,14.79166,0,0,0,122.82935,476.35c3.26416-3.42054,5.58618-8.48072,6.81543-14.62415q1.34985.71448,2.77172,1.42676c8.10035,4.05017,15.802,6.10229,22.89722,6.10229,12.2544,0,22.14209-6.27783,27.8418-17.67712,4.00171-8.00342,8.66211-19.04236,7.93335-29.98462a623.2439,623.2439,0,0,0,187.10962-79.3042c1.86865.82373,3.07031,1.23352,3.27172,1.30054a7.99621,7.99621,0,0,0,9.18848-3.15528,81.79173,81.79173,0,0,0,5.49439-10.05847q1.90246-1.30938,3.83178-2.66528A28.07672,28.07672,0,0,0,416,325.30957a28.03,28.03,0,0,0,39.346-31.3656C461.34619,296.00012,467.10767,296,472,296a7.99915,7.99915,0,0,0,5.65674-2.34314c3.66211-3.66211,7.53491-10.49072,5.18774-22.22571-.13379-.6698-.28174-1.32287-.43921-1.95581a37.05531,37.05531,0,0,0,11.25147-7.81848,8.00043,8.00043,0,0,0,1.93286-8.18652C492.061,242.88428,485.9397,237.17719,479.929,234.131ZM472,260a4.00067,4.00067,0,0,0-3.57812,5.78906c1.6123,3.22412,5.05371,12.9253,1.69042,18.207-4.29028-.02539-8.20019-.23364-12.03906-1.83227a27.88,27.88,0,0,0-1.46972-23.52063,28.23649,28.23649,0,0,0,16.553-14.41773c4.50489,1.8559,7.90528,5.42426,10.14722,10.65882C477.419,259.81494,472.20117,259.99463,472,260Zm-29.53516,33.14062a16.00494,16.00494,0,0,1-24.06152,19.66163,4.00194,4.00194,0,0,0-4.80664,0A15.85253,15.85253,0,0,1,404,316a16.023,16.023,0,0,1-14.7583-9.8374,27.7978,27.7978,0,0,0,4.43823-29.28516A16.09147,16.09147,0,0,1,408,268a15.883,15.883,0,0,1,6.39844,1.32959,4.00013,4.00013,0,1,0,3.20312-7.33105,23.91478,23.91478,0,0,0-21.62036,1.259,27.82354,27.82354,0,0,0-4.04028-13.76508,16.01571,16.01571,0,0,1,1.2666-1.30536,3.95292,3.95292,0,0,0,.40918-.36419,15.99908,15.99908,0,0,1,24.41357,4.49591,4.00117,4.00117,0,0,0,5.26172,1.67676A19.7131,19.7131,0,0,1,432,252a19.996,19.996,0,0,1,11.73145,36.19189A3.9999,3.9999,0,0,0,442.46484,293.14062ZM137.78906,452.42236c-14.14258-7.07129-21.93847-14.282-35.22412-27.51941,21.28443-10.97985,36.4668-5.04553,42.24658-1.79016,6.47071,3.64356,9.85547,8.56983,9.85547,11.55371,0,3.16065-1.04492,5.23633-3.10644,6.16895a7.4349,7.4349,0,0,1-7.41993-1.17334,3.99991,3.99991,0,1,0-5.28124,6.00879,15.38157,15.38157,0,0,0,10.07128,3.69287,14.39688,14.39688,0,0,0,5.92774-1.23975c4.96289-2.2456,7.80859-7.15039,7.80859-13.45752,0-6.48828-5.46777-13.75927-13.92969-18.52441-6.43457-3.62378-22.50634-10.06494-44.48584-.85071,5.82422-7.14636,16.249-14.55725,22.26319-15.24353,10.581-1.20459,23.623,1.60986,32.51562,3.83252,9.69043,2.42285,15.93555,6.54639,18.56153,12.25635,3.18164,6.91748,1.49023,16.75488-5.16992,30.07422-3.19922,6.39941-7.77442,9.94189-13.98731,10.8291C152.62305,457.86768,145.48926,456.27246,137.78906,452.42236ZM114.00586,468.207a2.88871,2.88871,0,0,1-2.10742,1.03809,2.31015,2.31015,0,0,1-1.75293-.82227c-1.666-1.90869-1.90723-6.4751-1.76367-8.37646a4.00053,4.00053,0,0,0-7.20215-2.70362c-1.61621,2.18262-9.0127,10.43653-13.01758,7.81739-1.02246-.667-1.06348-1.12012-1.0791-1.29053-.28125-3.04639,6.22656-9.26318,9.00586-11.91748l.63672-.60938c3.2351-3.1018,6.551-6.28869,8.855-12.30835a136.14935,136.14935,0,0,0,13.07153,11.1333C118.78223,459.92529,116.293,465.953,114.00586,468.207ZM69.05273,482.05371a87.9933,87.9933,0,0,1-39.10937-39.11182,20.02745,20.02745,0,0,1,2.74365-22.0072,8.98464,8.98464,0,0,0,4.29639,1.90222,9.75412,9.75412,0,0,0,1.48633.11231c6.37207-.00049,12.81445-5.9751,17.61132-10.42481l.63282-.58642c3.71045-3.42774,6.70776-6.18506,14.23779-7.34448,1.72754,1.74157,3.5498,3.56469,5.49463,5.50952l16.72559,16.72558c2.12011,2.12012,4.09765,4.09668,5.97924,5.96009-1.64966,6.70935-4.469,9.43029-7.96264,12.77966l-.626.59912c-4.16992,3.9834-9.59521,9.17151-11.0874,14.70142a3.99315,3.99315,0,0,0-3.90186,1.9021l-5.417,9a3.99957,3.99957,0,1,0,6.85352,4.125l3.96752-6.59192a11.26164,11.26164,0,0,0,2.80982,2.55432c2.302,1.50195,6.74512,3.16492,12.88769-.022q-.68408,1.17188-1.36621,2.354A19.99391,19.99391,0,0,1,69.05273,482.05371ZM216,52a19.12437,19.12437,0,0,1,4.58887.543,3.99919,3.99919,0,0,0,4.03613-1.32471,19.99054,19.99054,0,0,1,21.62842-6.21606,27.94392,27.94392,0,0,0-1.91382,15.337A28.28043,28.28043,0,0,0,240,60a27.95231,27.95231,0,0,0-18.668,7.13086A4.00016,4.00016,0,0,0,226.668,73.0918a20.0154,20.0154,0,0,1,20.78955-3.653A27.90979,27.90979,0,0,0,249.02344,72a27.92018,27.92018,0,0,0-2.41431,4.23389,15.99,15.99,0,1,0,4.30493,30.19549,28.0638,28.0638,0,0,0,3.42774,3.30738A27.91262,27.91262,0,0,0,248,113.02393a27.98237,27.98237,0,0,0-22.7915-4.18665A19.98494,19.98494,0,0,1,216,92a4,4,0,0,0-8,0,27.96371,27.96371,0,0,0,8.88232,20.45062,28.20151,28.20151,0,0,0-9.2207,9.73212,19.99432,19.99432,0,0,1-6.563-31.51282,3.99929,3.99929,0,0,0,0-5.33984A19.993,19.993,0,0,1,216,52ZM461.17188,93.17139A4,4,0,0,0,464,100c.05957,0,5.71973.1626,11.8877,5.61963-.83814,5.9939-6.20508,10.683-11.41358,13.89117a23.96868,23.96868,0,0,0-25.33276.221A27.932,27.932,0,0,0,441.2959,92a28.00226,28.00226,0,0,0,2.21387-6.84027,35.72032,35.72032,0,0,1,24.0498-2.28571C466.30859,87.23828,462.72266,91.6084,461.17188,93.17139Zm15.36425,76.34082a4.00057,4.00057,0,0,0-1.59863,4.80371,15.84485,15.84485,0,0,1-1.42627,14.22949,28.16662,28.16662,0,0,0-21.648-16.272,28.0276,28.0276,0,0,0-8.50488-5.85156A23.84916,23.84916,0,0,0,452,148c0-.63873-.03271-1.26959-.08179-1.89587A16.00124,16.00124,0,0,1,460,160a4,4,0,0,0,8,0,24.00678,24.00678,0,0,0-18.91821-23.46027,24.17714,24.17714,0,0,0-7.72119-8.46661,15.96822,15.96822,0,0,1,26.35717,9.00208,4.00032,4.00032,0,0,0,3.207,3.207,15.976,15.976,0,0,1,5.61133,29.23ZM352,316a20.02164,20.02164,0,0,1-18.86719-13.36572,4.0115,4.0115,0,0,0-4.042-2.665c-.36035.02392-.72168.03076-1.09082.03076a20.14143,20.14143,0,0,1-15.9646-8.001,28.02653,28.02653,0,0,0,27.94653-27.28222A12.00631,12.00631,0,0,1,344,264a4,4,0,0,0,0-8,20.04682,20.04682,0,0,0-5.00342.64087A27.89181,27.89181,0,0,0,334.97461,248a27.90379,27.90379,0,0,0,4.65527-11.50354,19.886,19.886,0,0,1,19.74512,6.7218,3.99921,3.99921,0,0,0,4.03613,1.32471A19.12437,19.12437,0,0,1,368,244a20.0226,20.0226,0,0,1,20,20,19.82319,19.82319,0,0,1-2.68457,9.9834,3.99924,3.99924,0,0,0,0,4.0332A19.82319,19.82319,0,0,1,388,288a20.08888,20.08888,0,0,1-18.37012,19.93262,4.00229,4.00229,0,0,0-2.6748,1.33642A19.98248,19.98248,0,0,1,352,316ZM198.68555,201.9834a19.95859,19.95859,0,0,1,3.46338-24.40906,27.83074,27.83074,0,0,0,10.47753,8.00128,24.00911,24.00911,0,0,0-6.40966,28.51032,4,4,0,1,0,7.25781-3.36524,16.00279,16.00279,0,0,1,3.69531-18.48852,27.72449,27.72449,0,0,0,4.39307,4.87109,16.00347,16.00347,0,0,0,9.104,21.9856,4.00013,4.00013,0,0,0,2.666-7.543,7.9772,7.9772,0,0,1-4.926-10.04175,28.04994,28.04994,0,0,0,33.07935-7.554,28.04735,28.04735,0,0,0,7.156,1.83886A27.95322,27.95322,0,0,0,260.25,212.25a28.07256,28.07256,0,0,0-21.4187,15.49017A16.11946,16.11946,0,0,1,236,228a15.88083,15.88083,0,0,1-12.80273-6.40234,4,4,0,0,0-6.39649,4.80468A23.81476,23.81476,0,0,0,236,236c.09644,0,.19189-.00916.28833-.01031a27.25824,27.25824,0,0,0-.051,7.54394,19.88178,19.88178,0,0,1-19.19238-6.26459,4.00035,4.00035,0,0,0-2.67578-1.33642A20.0881,20.0881,0,0,1,196,216a19.82052,19.82052,0,0,1,2.68457-9.9834A4.00157,4.00157,0,0,0,198.68555,201.9834Zm12.52636-57.35889a4.00035,4.00035,0,0,0,1.333-3.99512,19.99589,19.99589,0,0,1,32.78711-19.5332,3.99848,3.99848,0,0,0,5.33594,0,19.99628,19.99628,0,0,1,30.75976,24.71094,3.99981,3.99981,0,0,0,1.32813,5.33594,19.99687,19.99687,0,0,1-20.56348,34.28466,4.00039,4.00039,0,0,0-5.33593,1.32813A19.92951,19.92951,0,0,1,240,196a20.13413,20.13413,0,0,1-19.14062-14.19141,3.99991,3.99991,0,0,0-2.668-2.668,20.00064,20.00064,0,0,1-6.9795-34.51611Zm35.29566-45.03515A7.99686,7.99686,0,1,1,244,84c.09888,0,.19531.012.29346.01544a27.82265,27.82265,0,0,0,2.21411,15.57392Zm47.75805.48632c4.62793,6.03565,2.05958,14.12842,1.94532,14.477a3.99961,3.99961,0,0,0,5.00586,5.09082c.09082-.0288,8.48047-2.62744,14.64453,2.042a33.44244,33.44244,0,0,1-4.36524,11.35058,27.94814,27.94814,0,0,0-19.529,1.6662,28.04246,28.04246,0,0,0-16.6228-24.29223C280.49878,104.54889,287.53076,100.65643,294.26562,100.07568ZM339.91235,74.1593a3.9971,3.9971,0,0,0,.37085-1.08166,15.97622,15.97622,0,0,1,29.22852-5.61719,3.99823,3.99823,0,0,0,4.80078,1.59814,15.96994,15.96994,0,0,1,18.46094,24.53662,4.00124,4.00124,0,0,0,0,4.81006,16.12642,16.12642,0,0,1,1.98,3.45423,24.025,24.025,0,0,0-9.8374,7.58923c-.84449-.28455-1.70337-.514-2.5691-.715a23.97408,23.97408,0,0,0-7.94458-27.93341,4,4,0,0,0-4.80468,6.39649,15.98077,15.98077,0,0,1,4.1958,20.895,27.69159,27.69159,0,0,0-6.29908,1.26519A11.97677,11.97677,0,0,0,372,100a4,4,0,0,0-8,0,4,4,0,1,1-4-4,4,4,0,0,0,0-8,12.00024,12.00024,0,1,0,1.999,23.81946,28.1838,28.1838,0,0,0-11.39819,12.43335,40.86129,40.86129,0,0,0-9.438,4.54815A19.86681,19.86681,0,0,1,332,112a19.58959,19.58959,0,0,1,.248-3.14746,4.0007,4.0007,0,0,0-1.60743-3.88623,16.05777,16.05777,0,0,1-5.86035-8.07282A28.041,28.041,0,0,0,339.91235,74.1593ZM420,124a16.09572,16.09572,0,0,1-.43262,3.63135,4.00069,4.00069,0,0,0,4.80078,4.80127A16.10974,16.10974,0,0,1,428,132a15.88746,15.88746,0,0,1,5.68457,1.06238l.01953.00714a15.96881,15.96881,0,0,1,2.832,28.44269,3.98715,3.98715,0,0,0-1.77832,2.62494Q433.38891,164.00128,432,164a28.15467,28.15467,0,0,0-3.34839.20758A23.84664,23.84664,0,0,0,432,152a4,4,0,0,0-8,0,16.01833,16.01833,0,0,1-16,16,4.0002,4.0002,0,0,0-4,4c0,.09979.02222.19336.0293.29132A27.91148,27.91148,0,0,0,388.114,180.3028q-.66467-.09834-1.3396-.16462A33.18422,33.18422,0,0,0,393.252,160.3916a30.67026,30.67026,0,0,0-3.59961-15.46985,16.075,16.075,0,0,1,11.11914-8.59607,4.00012,4.00012,0,1,0-1.60351-7.83789A24.11906,24.11906,0,0,0,383.21631,140.013a43.34794,43.34794,0,0,0-19.8335,4.84393c-.73559-4.848-2.34961-11.28143-5.88281-16.44134A20.139,20.139,0,0,1,376,116a19.8073,19.8073,0,0,1,8.71289,1.99268,3.99809,3.99809,0,0,0,5.25195-1.67432A15.99985,15.99985,0,0,1,420,124Zm-17.22559,90.83508c-11.73584,9.0708-15.2395,20.02961-15.91943,28.37622-.01831.01886-.03711.03724-.05542.05616a27.93879,27.93879,0,0,0-13.42358-6.74408A23.99935,23.99935,0,0,0,380,220a4,4,0,0,0-8,0,16.02554,16.02554,0,0,1-9.79492,14.73993,27.75977,27.75977,0,0,0-22.45117-6.402,27.93851,27.93851,0,0,0-8.17261-16.32458A27.93936,27.93936,0,0,0,340,192c0-.68652-.02441-1.37061-.07422-2.04785a24.09033,24.09033,0,0,0,7.66773-13.613,19.96849,19.96849,0,0,1,31.27368,9.02655,4.01407,4.01407,0,0,0,4.042,2.665C383.26953,188.00684,383.63086,188,384,188a19.95024,19.95024,0,0,1,18.77441,26.83508ZM308,176a4.0002,4.0002,0,0,0-4,4,12.05182,12.05182,0,0,1-5.47949,10.0744,27.89053,27.89053,0,0,0-7.17822-1.85779A27.91512,27.91512,0,0,0,300,168a28.2592,28.2592,0,0,0-.29248-3.9906c.09766-.00177.19482-.0094.29248-.0094a16.03976,16.03976,0,0,1,15.67969,12.79541,3.99981,3.99981,0,1,0,7.83984-1.59082A23.9027,23.9027,0,0,0,297.38208,156.153a27.89271,27.89271,0,0,0-7.43188-9.63928c.14868-.36712.28637-.7384.41943-1.11133a19.96249,19.96249,0,0,1,32.5376,8.07862,3.99791,3.99791,0,0,0,3.251,2.66357,16.00057,16.00057,0,0,1,7.20118,28.83154,3.99991,3.99991,0,0,0-1.60743,3.88623A19.53472,19.53472,0,0,1,332,192a19.9622,19.9622,0,0,1-7.00879,15.20245,27.79967,27.79967,0,0,0-11.67871-3.17218,27.94543,27.94543,0,0,0-7.48926-9.6004A20.05913,20.05913,0,0,0,312,180,4.0002,4.0002,0,0,0,308,176Zm42.77051-43.27246C355.90234,139.9126,356,151.87354,356,152a4.00016,4.00016,0,0,0,6.82812,2.82861c.06543-.06543,6.59571-6.23925,19.34668-6.78955,1.96094,2.81153,3.14161,7.40332,3.07715,12.24707a25.77364,25.77364,0,0,1-3.87939,13.6543,27.96242,27.96242,0,0,0-33.92871-6.96655,24.12371,24.12371,0,0,0-13.41333-16.75867A29.26341,29.26341,0,0,1,350.77051,132.72754Zm-29.16284-25.3584a23.99812,23.99812,0,0,0,2.46655,2.57324Q323.99951,110.96265,324,112a27.8096,27.8096,0,0,0,10.79224,22.09357,38.14559,38.14559,0,0,0-7.22046,10.8,27.98216,27.98216,0,0,0-8.70044-8.6026C321.95,130.90027,324,124.58118,324,120a4.00163,4.00163,0,0,0-1.17188-2.82861,20.53431,20.53431,0,0,0-4.96972-3.66333A27.60558,27.60558,0,0,0,321.60767,107.36914ZM212.35742,243.93805a27.98847,27.98847,0,0,0,26.02515,7.32721,28.03343,28.03343,0,0,0,13.6477,14.04675,27.89515,27.89515,0,0,0,.7522,5.25977A38.58771,38.58771,0,0,1,241.71,282.24658C239.00879,276.2002,236,268.13525,236,264a4.00016,4.00016,0,0,0-6.82812-2.82861c-4.98145,4.98144-14.15333,6.32959-18.6084,6.69433A29.8049,29.8049,0,0,1,212.35742,243.93805ZM260,264c0-.36914.00684-.73047.03125-1.09131a4.00045,4.00045,0,0,0-2.666-4.04248A19.99929,19.99929,0,0,1,264,220a4.0002,4.0002,0,0,0,4-4,19.99976,19.99976,0,0,1,38.86719-6.63428,4.01267,4.01267,0,0,0,4.042,2.665C311.26953,212.00684,311.63086,212,312,212a19.993,19.993,0,0,1,14.90137,33.33008,3.99929,3.99929,0,0,0,0,5.33984,19.993,19.993,0,0,1-28.23145,28.23145,4,4,0,0,0-5.33984,0A19.993,19.993,0,0,1,260,264Zm31.98706,25.29175A27.90689,27.90689,0,0,0,296,286.97412a27.89713,27.89713,0,0,0,5.8855,3.1261,27.76893,27.76893,0,0,0,5.04736,8.26685c-5.991,5.4613-13.4397,5.30847-18.676,4.194C291.45557,298.55737,291.91943,293.82349,291.98706,289.29175Zm117.00317-69.11548c3.61231,1.20605,8.78516,8.33789,11.43165,13.61279a4.00539,4.00539,0,0,0,6.40136,1.04492c1.7041-1.69189,6.72364-5.78418,11.44434-6.665,2.57763,3.77709,3.97925,10.69842,3.68823,17.66644a28.0269,28.0269,0,0,0-18.8728-.38568,24.01882,24.01882,0,0,0-26.99024-8.11524C397.82324,231.71167,401.52148,225.52118,408.99023,220.17627Zm42.29053,31.54858c-.53857-.51233-1.09472-1.00561-1.67261-1.47424,1.26685-10.2337-.55468-22.85486-6.78-29.07922A4,4,0,0,0,440,220c-5.83789,0-11.335,3.18555-14.88281,5.81934-2.84912-4.62-7.71778-11.10425-13.511-13.15619a27.96372,27.96372,0,0,0-14.52759-29.41242,19.96318,19.96318,0,0,1,15.54932-2.7063,3.99512,3.99512,0,0,0,3.99609-1.33252,19.99108,19.99108,0,0,1,30.3418-.47168,3.99985,3.99985,0,0,0,2.6709,1.333,19.991,19.991,0,0,1,13.2666,33.25879,4.00063,4.00063,0,0,0,0,5.33594,19.992,19.992,0,0,1-11.62256,33.05688ZM433.31934,89.99658a3.997,3.997,0,0,0,0,4.00684,19.97691,19.97691,0,0,1-5.62159,26.2063,23.92567,23.92567,0,0,0-5.8186-12.19825,24.00655,24.00655,0,0,0-8.5354-38.12377,4.00021,4.00021,0,0,0-3.11719,7.36816,15.97611,15.97611,0,0,1,5.36768,25.73938A23.84772,23.84772,0,0,0,404,100q-.6936,0-1.38037.04041a24.24381,24.24381,0,0,0-1.85791-4.036A23.715,23.715,0,0,0,404,84a24.03933,24.03933,0,0,0-17.73877-23.16614,20.04348,20.04348,0,0,1,15.73486,1.8468,3.99887,3.99887,0,0,0,4.00782,0,19.99557,19.99557,0,0,1,27.31543,27.31592Zm-43.77417-37.8797a27.73524,27.73524,0,0,0-16.36646,7.14874,23.936,23.936,0,0,0-35.59619,1.385,28.02758,28.02758,0,0,0-5.855-8.51385c-.05713-.41162-.12451-.82007-.19971-1.22571,1.88745-10.7644,9.41089-18.80585,12.981-22.08728C349.90332,31.95361,356,36.86816,356,40a4.00016,4.00016,0,0,0,6.82812,2.82861c4.417-4.4165,17.23438-6.37549,26.09571-6.75781A45.66284,45.66284,0,0,1,389.54517,52.11688Zm-65.61841,2.24738a4.006,4.006,0,0,0,1.333,2.66992,19.995,19.995,0,0,1-6.627,33.835,3.99856,3.99856,0,0,0-2.667,3.999c.02051.375.03418.752.03418,1.13184a19.81764,19.81764,0,0,1-6.80737,15.0246,28.56048,28.56048,0,0,0-4.2688-.05146c.36719-4.99169-.40039-12.10644-6.09571-17.80175A4,4,0,0,0,296,92a33.37948,33.37948,0,0,0-17.17285,5.11578,16.00908,16.00908,0,0,1-3.62891-22.7149,4.00029,4.00029,0,0,0-6.39648-4.80567,23.99823,23.99823,0,0,0,3.4602,32.52039,41.70826,41.70826,0,0,0-4.8208,5.34992A19.98849,19.98849,0,0,1,257.09668,74.668a4.00063,4.00063,0,0,0,0-5.33594A19.99619,19.99619,0,0,1,285.332,41.09619a3.99848,3.99848,0,0,0,5.33594,0,19.99138,19.99138,0,0,1,33.25879,13.26807Zm-132.40308,63.187A28.04862,28.04862,0,0,0,204.741,129.62439a27.81313,27.81313,0,0,0-.43726,10.4762,28.11158,28.11158,0,0,0-6.2771,30.428,28.04539,28.04539,0,0,0-3.23413,3.19567,66.95168,66.95168,0,0,1-21.03662-7.01873C181.02344,156.5415,189.251,148,192,148a4,4,0,0,0,0-8c-3.37793,0-11.39746-5.74756-18.12012-11.91113C177.56543,124.99017,184.18823,120.05463,191.52368,117.55127ZM100.11914,336.97021c2.01636,8.06287,3.39648,20.95777,3.47022,31.0857a25.15617,25.15617,0,0,0-11.12427-1.562C89.981,346.46436,77.80322,330.8335,64,330.8335c-6.30664,0-11.21191,2.8457-13.457,7.8081a15.35613,15.35613,0,0,0,2.45215,15.99854,4,4,0,1,0,6.00976-5.28028,7.436,7.436,0,0,1-1.17383-7.42041c.93262-2.061,3.00879-3.106,6.169-3.106,8.63281,0,18.79053,12.00634,20.6333,29.58007a25.49066,25.49066,0,0,0-15.65039,22.63831,122.31439,122.31439,0,0,1-9.75122-11.65,3.98532,3.98532,0,0,0-1.64233-2.33985,99.54767,99.54767,0,0,1-6.73682-11.57666c-15.32227-30.64306-5.84766-39.51562-1.06348-41.90771,10.874-5.437,26.37793-9.46241,37.2793-4.44727C93.50977,322.09277,97.90039,328.09473,100.11914,336.97021ZM94.05347,416.397,82.10474,404.44849l-.0022-.00269-.00464-.00464A17.60108,17.60108,0,0,1,95.3457,374.417a17.40773,17.40773,0,0,1,12.72364,6.31494l11.03051,13.23633a57.83825,57.83825,0,0,0-14.592,9.60254C101.89282,405.89282,96.87305,410.79675,94.05347,416.397Zm-48.488-15.14306a3.99778,3.99778,0,0,0,1.63867-4.519,4.06773,4.06773,0,0,0-3.89062-2.83349c-1.91016.03027-6.46094-.48877-8.26563-2.26709A2.311,2.311,0,0,1,34.333,389.835a2.86454,2.86454,0,0,1,1.13769-2.01758c2.27149-2.06518,8.10742-4.14123,17.32129-3.63232a135.14526,135.14526,0,0,0,11.61914,13.6886c-6.34594,1.92883-9.77954,5.09729-13.126,8.18835l-.64454.59717c-2.81738,2.61377-9.41308,8.74805-12.44238,8.27051-.16894-.02588-.61914-.09473-1.22265-1.15528C34.834,410.01807,41.98145,403.60107,45.56543,401.25391Zm115.4043-5.13428c-13.90088-3.47559-24.52686-4.82788-33.17578-4.21546l-13.57813-16.29382a25.50133,25.50133,0,0,0-2.69531-2.77075c.43286-11.29773-1.11865-27.72656-3.63965-37.80981a40.82475,40.82475,0,0,0-5.43555-12.8025A612.47421,612.47421,0,0,1,178.5918,142.21338c1.24438.86743,2.51123,1.6944,3.77832,2.43262-7.07324,5.88037-14.19141,15.87451-17.69824,21.13525a4.00062,4.00062,0,0,0,1.10937,5.54687,74.28687,74.28687,0,0,0,24.44409,9.73053A27.96955,27.96955,0,0,0,190.709,204,27.867,27.867,0,0,0,188,216a28.17159,28.17159,0,0,0,16.58179,25.5459c-4.80762,9.72986-5.03028,22.50122-.15991,32.24316A4.00138,4.00138,0,0,0,208,276c.58691,0,11.97266-.06934,21.08105-4.97607a111.44479,111.44479,0,0,0,7.34083,18.76513,3.99781,3.99781,0,0,0,5.36718,1.78858,48.49084,48.49084,0,0,0,14.74707-12.31739,27.847,27.847,0,0,0,27.34473,12.458c-.31909,4.19129-1.48145,6.60986-5.66992,8.7041a4.00006,4.00006,0,0,0,0,7.15528,36.38219,36.38219,0,0,0,15.60254,3.5747A26.7506,26.7506,0,0,0,313.042,303.601a27.951,27.951,0,0,0,13.64551,4.3678,27.96328,27.96328,0,0,0,31.91187,15.23584,60.2298,60.2298,0,0,0,11.469,10.02039,610.91918,610.91918,0,0,1-186.1731,77.72082C179.86548,403.90649,172.17236,398.91992,160.96973,396.11963Zm205.533-76.17383a27.91865,27.91865,0,0,0,5.35278-4.21191,27.661,27.661,0,0,0,11.13818-4.13013,23.97449,23.97449,0,0,0,5.16284,6.40417,72.20982,72.20982,0,0,1-5.80883,12.99256A55.21109,55.21109,0,0,1,366.50269,319.9458Z"/><path d="M340,100a4.0002,4.0002,0,0,0,4-4,12.01343,12.01343,0,0,1,12-12,4,4,0,0,0,0-8,20.0226,20.0226,0,0,0-20,20A4.0002,4.0002,0,0,0,340,100Z"/><path d="M287.2041,56.31982A3.9999,3.9999,0,0,0,288.7959,48.48,24.17224,24.17224,0,0,0,284,48a23.81476,23.81476,0,0,0-19.19922,9.59766,4,4,0,1,0,6.39649,4.80468A15.88083,15.88083,0,0,1,284,56,16.1345,16.1345,0,0,1,287.2041,56.31982Z"/><path d="M305.59863,60.80176a3.99939,3.99939,0,0,0-.7959,5.60058,16.00391,16.00391,0,0,1,0,19.19532,4,4,0,1,0,6.39649,4.80468,24.0039,24.0039,0,0,0,0-28.80468A4.00032,4.00032,0,0,0,305.59863,60.80176Z"/><path d="M288,60a4,4,0,0,0,0,8,4,4,0,1,1-4,4,4,4,0,0,0-8,0,12,12,0,1,0,12-12Z"/><path d="M399.51465,160.48535a3.99992,3.99992,0,1,0,5.65625-5.65723,4,4,0,1,1,5.6582,0,3.99992,3.99992,0,1,0,5.65625,5.65723,12.0001,12.0001,0,1,0-16.9707,0Z"/><path d="M444,200a4.0002,4.0002,0,0,0-4,4,4,4,0,0,1-8,0,4,4,0,0,0-8,0,12,12,0,0,0,24,0A4.0002,4.0002,0,0,0,444,200Z"/><path d="M450.40234,184.80029a4,4,0,0,0-4.80468,6.39649,16.00332,16.00332,0,0,1,3.20507,22.40088,4,4,0,0,0,6.39649,4.80468,24.00332,24.00332,0,0,0-4.79688-33.60205Z"/><path d="M356,184a4,4,0,0,0,0,8,16.01833,16.01833,0,0,1,16,16,4,4,0,0,0,8,0A24.02718,24.02718,0,0,0,356,184Z"/><path d="M356,200a12.01343,12.01343,0,0,0-12,12,4,4,0,0,0,8,0,4,4,0,1,1,4,4,4,4,0,0,0,0,8,12,12,0,0,0,0-24Z"/><path d="M428,284a4.0002,4.0002,0,0,0-4,4,12.00315,12.00315,0,0,1-18.25684,10.24219,4.00009,4.00009,0,0,0-4.18164,6.82031A20.00339,20.00339,0,0,0,432,288,4.0002,4.0002,0,0,0,428,284Z"/><path d="M410,296a12,12,0,0,0,0-24,4,4,0,0,0,0,8,4,4,0,1,1-4,4,4,4,0,0,0-8,0A12.01343,12.01343,0,0,0,410,296Z"/><path d="M356,256a11.99993,11.99993,0,0,1,9.001,19.936,4.00007,4.00007,0,0,0,5.998,5.29394A20.00008,20.00008,0,0,0,356,248a4,4,0,0,0,0,8Z"/><path d="M352,292a4,4,0,0,0,0-8,4,4,0,0,1,0-8,4,4,0,0,0,0-8,12,12,0,0,0,0,24Z"/><path d="M371.19824,294.4043a4,4,0,1,0-6.39648-4.80469,16.00372,16.00372,0,0,1-22.40039,3.20264,4.00019,4.00019,0,1,0-4.80664,6.3955,24.00448,24.00448,0,0,0,33.60351-4.79345Z"/><path d="M308,246.14209a15.95641,15.95641,0,0,1-4.20117,10.80713,4.00027,4.00027,0,0,0,5.89844,5.40527,24.0017,24.0017,0,0,0-.72657-33.1831,3.99992,3.99992,0,0,0-5.65625,5.65722A15.895,15.895,0,0,1,308,246.14209Z"/><path d="M268,244a16.01833,16.01833,0,0,1,16-16,4,4,0,0,0,0-8,24.02718,24.02718,0,0,0-24,24,4,4,0,0,0,8,0Z"/><path d="M280,244a4,4,0,0,0-8,0,16,16,0,0,0,32,0,4,4,0,0,0-8,0,8,8,0,0,1-16,0Z"/><path d="M240,180a4,4,0,0,0,0-8,12.01343,12.01343,0,0,1-12-12,4,4,0,0,0-8,0A20.0226,20.0226,0,0,0,240,180Z"/><path d="M224.1377,139.4624a3.99805,3.99805,0,0,0,5.46484-1.45947,12.0102,12.0102,0,0,1,16.39453-4.3999,4,4,0,1,0,4.00586-6.92481,20.009,20.009,0,0,0-27.32422,7.31885A3.99982,3.99982,0,0,0,224.1377,139.4624Z"/><path d="M257.99707,149.603a12.00862,12.00862,0,0,1,4.39941,16.394,4.00042,4.00042,0,1,0,6.92579,4.00586,20.01059,20.01059,0,0,0-7.31934-27.32471,4,4,0,1,0-4.00586,6.92481Z"/><path d="M240,140a12,12,0,1,0,12,12A12.01343,12.01343,0,0,0,240,140Zm0,16a4,4,0,1,1,4-4A4.00427,4.00427,0,0,1,240,156Z"/><path d="M236.43555,373.91162a3.99625,3.99625,0,0,0,5.3789,1.74951,797.01328,797.01328,0,0,0,72.36524-41.8291,4,4,0,1,0-4.35938-6.708,789.047,789.047,0,0,1-71.63476,41.40821A3.99931,3.99931,0,0,0,236.43555,373.91162Z"/><path d="M246.50879,333.687a3.99953,3.99953,0,0,0-5.57617-.95068c-25.18848,17.85058-50.41211,34.272-74.96973,48.8081a4,4,0,1,0,4.07422,6.88477c24.74609-14.64746,50.15527-31.189,75.52051-49.16553A4.00008,4.00008,0,0,0,246.50879,333.687Z"/><path d="M202.665,286.41309a3.99963,3.99963,0,0,0-5.64746.31689C180.2959,305.44092,164.126,323.93945,148.957,341.7124a4.0003,4.0003,0,0,0,6.08594,5.19336c15.12891-17.72656,31.25781-36.1792,47.93945-54.84472A3.99924,3.99924,0,0,0,202.665,286.41309Z"/><path d="M187.5166,252.76611a3.99988,3.99988,0,0,0-5.58789.87989,1099.62623,1099.62623,0,0,0-65.40039,100.41748,3.99976,3.99976,0,1,0,6.94336,3.97265A1091.90391,1091.90391,0,0,1,188.39551,258.354,3.9991,3.9991,0,0,0,187.5166,252.76611Z"/><path d="M126.31738,300.10107a3.99737,3.99737,0,0,0,5.31153-1.9458,773.9823,773.9823,0,0,1,47.75293-87.40185,4.0003,4.0003,0,0,0-6.76368-4.27344,782.01285,782.01285,0,0,0-48.24707,88.30908A3.99971,3.99971,0,0,0,126.31738,300.10107Z"/><path d="M50.71777,429.86865a3.999,3.999,0,0,0-5.51562-1.25342l-8.85645,5.57618a3.99965,3.99965,0,1,0,4.26172,6.76953l8.85645-5.57617A3.99956,3.99956,0,0,0,50.71777,429.86865Z"/><path d="M58.70215,441.99561a3.99852,3.99852,0,0,0-5.624-.61426l-8.25,6.625a4.00005,4.00005,0,0,0,5.00977,6.2373l8.25-6.625A4.00066,4.00066,0,0,0,58.70215,441.99561Z"/><path d="M68.92773,452.87549a3.99942,3.99942,0,0,0-5.6455.353l-7.02051,7.95654a3.99975,3.99975,0,1,0,5.99805,5.293l7.0205-7.95655A4.00014,4.00014,0,0,0,68.92773,452.87549Z"/></g></svg>
