<svg id="Capa_1" enable-background="new 0 0 512 512" height="512" viewBox="0 0 512 512" width="512" xmlns="http://www.w3.org/2000/svg"><g><path d="m347.029 317.024-76.029-76.029-74.603-74.603-57.065-27.065-91.081 91.086c-64.338 64.338-64.334 169.001 0 233.335 32.171 32.168 74.421 48.252 116.67 48.252 101.885-.002 140.678-82.936 207.746-139.338z" fill="#ff6c6c"/><path d="m372.667 372.662-25.638-55.638-76.029-76.029-222.748 222.753c32.17 32.168 74.42 48.252 116.669 48.252 101.886-.002 140.679-82.936 207.746-139.338z" fill="#e63950"/><path d="m463.748 48.241c-64.338-64.323-169.001-64.319-233.335 0l-91.081 91.086 116.668 116.668 116.667 116.667 91.081-91.086c64.338-64.338 64.334-169.001 0-233.335z" fill="#edf5ff"/><path d="m463.748 281.576c64.338-64.338 64.334-169.001 0-233.335l-207.748 207.754 116.667 116.667z" fill="#d5e8fe"/></g></svg>